<svg width="28" height="20" viewBox="0 0 28 20" fill="none" xmlns="http://www.w3.org/2000/svg">
<path d="M25.6666 0H2.33329C1.89127 0 1.46734 0.175595 1.15478 0.488155C0.842221 0.800716 0.666626 1.22464 0.666626 1.66667V18.3333C0.666626 18.7754 0.842221 19.1993 1.15478 19.5118C1.46734 19.8244 1.89127 20 2.33329 20H25.6666C26.1087 20 26.5326 19.8244 26.8451 19.5118C27.1577 19.1993 27.3333 18.7754 27.3333 18.3333V1.66667C27.3333 1.22464 27.1577 0.800716 26.8451 0.488155C26.5326 0.175595 26.1087 0 25.6666 0ZM24.3833 18.3333H3.71663L9.54996 12.3L8.34996 11.1417L2.33329 17.3667V2.93333L12.6916 13.2417C13.0039 13.5521 13.4263 13.7263 13.8666 13.7263C14.3069 13.7263 14.7294 13.5521 15.0416 13.2417L25.6666 2.675V17.2583L19.5333 11.125L18.3583 12.3L24.3833 18.3333ZM3.42496 1.66667H24.3166L13.8666 12.0583L3.42496 1.66667Z" fill="#FFD71B"/>
</svg>
