<svg width="22" height="26" viewBox="0 0 22 26" fill="none" xmlns="http://www.w3.org/2000/svg">
<path d="M11 0.410645C16.7697 0.410645 21.4464 5.08743 21.4464 10.8571C21.4464 15.2714 18.3447 20.0821 12.2214 25.3406C11.881 25.6331 11.4469 25.7938 10.998 25.7934C10.5492 25.793 10.1153 25.6316 9.77537 25.3385L9.37037 24.9871C3.51823 19.8656 0.553589 15.1728 0.553589 10.8571C0.553589 5.08743 5.23037 0.410645 11 0.410645ZM11 6.83922C9.93441 6.83922 8.91246 7.26252 8.15896 8.01602C7.40547 8.76951 6.98216 9.79147 6.98216 10.8571C6.98216 11.9227 7.40547 12.9446 8.15896 13.6981C8.91246 14.4516 9.93441 14.8749 11 14.8749C12.0656 14.8749 13.0876 14.4516 13.8411 13.6981C14.5946 12.9446 15.0179 11.9227 15.0179 10.8571C15.0179 9.79147 14.5946 8.76951 13.8411 8.01602C13.0876 7.26252 12.0656 6.83922 11 6.83922Z" fill="#FFD71B"/>
</svg>
