<svg width="60" height="60" viewBox="0 0 60 60" fill="none" xmlns="http://www.w3.org/2000/svg">
<g clip-path="url(#clip0)">
<path d="M58.4393 51.0148L34.9121 27.4875L7.42465 0H5.27649L4.83785 1.11457C3.68016 4.05645 3.18551 7.06535 3.40758 9.81563C3.66071 12.9506 4.85168 15.6648 6.85196 17.6651L28.3102 39.1233L31.1405 36.293L50.9786 58.4757C52.952 60.4492 56.3487 60.5664 58.4393 58.4757C60.4964 56.4186 60.4964 53.0718 58.4393 51.0148Z" fill="#EEEEEE"/>
<path d="M18.3665 34.1533L1.56054 50.9593C-0.496335 53.0162 -0.496335 56.3632 1.56054 58.42C3.51452 60.374 6.8948 60.5465 9.02128 58.42L25.8274 41.6139L18.3665 34.1533Z" fill="#EEEEEE"/>
<path d="M57.4515 9.99005L47.9182 19.5233L45.4312 17.0363L54.9645 7.50298L52.4775 5.01603L42.9443 14.5492L40.4574 12.0623L49.9907 2.52907L47.5038 0.0422363L35.0691 12.477C33.5479 13.9982 32.6396 16.0181 32.5111 18.1647C32.4787 18.7086 32.3554 19.2435 32.1509 19.7524L40.2285 27.83C40.7373 27.6252 41.2724 27.5021 41.8162 27.4696C43.9628 27.3415 45.9826 26.433 47.5038 24.9118L59.9386 12.4771L57.4515 9.99005Z" fill="#EEEEEE"/>
</g>
<defs>
<clipPath id="clip0">
<rect width="60" height="60" fill="white"/>
</clipPath>
</defs>
</svg>
