<svg width="30" height="26" viewBox="0 0 30 26" fill="none" xmlns="http://www.w3.org/2000/svg">
<path d="M28.6015 4.10825L24.7241 0.750971C24.4506 0.51288 24.1255 0.323971 23.7675 0.195096C23.4095 0.066221 23.0257 -8.0523e-05 22.638 7.33917e-08C21.848 7.33917e-08 21.1053 0.268204 20.5482 0.750971L16.376 4.36699C16.1013 4.60404 15.8833 4.88579 15.7346 5.19607C15.5859 5.50634 15.5094 5.83903 15.5095 6.175C15.5095 6.85971 15.8189 7.5034 16.376 7.98617L19.4269 10.6303C18.7127 11.9946 17.7198 13.2357 16.4961 14.2937C15.2755 15.3568 13.8436 16.2205 12.2692 16.8432L9.21831 14.199C8.9448 13.9609 8.6197 13.772 8.2617 13.6432C7.90369 13.5143 7.51983 13.448 7.13218 13.4481C6.34214 13.4481 5.59943 13.7163 5.0424 14.199L0.866494 17.8119C0.591441 18.0494 0.373285 18.3317 0.224578 18.6425C0.0758711 18.9533 -0.000451154 19.2866 2.00617e-06 19.6231C2.00617e-06 20.3078 0.309464 20.9515 0.866494 21.4342L4.73658 24.7883C5.62492 25.5614 6.85184 26 8.11153 26C8.3773 26 8.63215 25.9811 8.88336 25.9432C13.7911 25.2427 18.6587 22.9803 22.587 19.5789C26.5117 16.1806 29.1185 11.965 29.9377 7.69903C30.1852 6.39587 29.6865 5.05485 28.6015 4.10825Z" fill="#FFD71B"/>
</svg>
